<svg xmlns="http://www.w3.org/2000/svg"
 width="512.000000pt" height="512.000000pt" viewBox="0 0 512.000000 512.000000"
 preserveAspectRatio="xMidYMid meet">

<g transform="translate(0.000000,512.000000) scale(0.100000,-0.100000)"
fill="#0055ff" stroke="none">
<path d="M3944 3976 c-161 -75 -190 -293 -54 -408 137 -118 357 -46 400 131
47 197 -160 364 -346 277z m144 -172 c48 -33 17 -114 -44 -114 -51 0 -76 78
-34 112 27 22 49 23 78 2z" fill="#0055ff"/>
<path d="M1421 3626 c-53 -30 -64 -89 -25 -135 l26 -31 203 0 c112 0 210 -3
219 -6 14 -5 16 -28 16 -154 l0 -149 -216 -3 -216 -3 -29 -33 c-32 -36 -36
-60 -15 -101 24 -46 50 -51 276 -51 l210 0 0 -136 c0 -74 -5 -144 -10 -155
-10 -18 -23 -19 -220 -19 -206 0 -209 0 -237 -24 -39 -34 -39 -98 0 -132 28
-24 30 -24 254 -24 256 0 284 6 343 78 48 59 52 99 48 537 l-3 400 -28 47
c-18 31 -44 57 -75 75 l-47 28 -225 3 c-175 1 -230 -1 -249 -12z" fill="#0055ff"/>
<path d="M2375 3625 c-22 -8 -59 -34 -81 -58 -63 -66 -66 -91 -62 -549 l3
-393 28 -48 c15 -26 47 -60 69 -75 41 -26 45 -27 221 -30 207 -4 243 4 301 68
51 57 58 92 54 286 -3 170 -3 171 -33 219 -21 35 -45 56 -79 74 -46 24 -62 26
-213 29 l-163 4 0 148 c0 145 0 148 23 154 12 3 108 6 214 6 105 0 199 3 208
6 20 8 45 56 45 88 0 14 -11 38 -24 53 l-24 28 -224 2 c-174 2 -232 -1 -263
-12z m353 -811 c2 -112 0 -144 -12 -153 -9 -8 -57 -11 -152 -9 l-139 3 -3 153
-3 153 153 -3 153 -3 3 -141z" fill="#0055ff"/>
<path d="M3303 3631 c-50 -13 -117 -57 -147 -96 -55 -72 -57 -88 -54 -501 l3
-379 27 -47 c35 -59 89 -103 151 -124 73 -24 287 -16 342 13 53 28 99 78 124
133 20 43 21 64 21 425 0 346 -2 384 -19 420 -27 60 -68 103 -125 132 -45 24
-64 27 -171 29 -66 2 -134 -1 -152 -5z m232 -185 c18 -8 38 -23 44 -34 7 -14
11 -137 11 -362 l0 -342 -29 -29 c-29 -28 -33 -29 -126 -29 -93 0 -97 1 -126
29 l-29 29 0 344 c0 379 0 379 63 397 49 14 154 13 192 -3z" fill="#0055ff"/>
<path d="M824 2721 c-268 -95 -457 -228 -520 -366 -51 -110 -29 -234 57 -338
149 -180 575 -346 1109 -431 263 -42 610 -76 783 -76 42 0 77 -3 77 -7 0 -4
-38 -46 -85 -94 -79 -81 -85 -89 -85 -128 0 -54 36 -91 89 -91 33 0 49 14 218
183 240 239 239 203 16 429 -93 93 -181 176 -197 185 -58 30 -126 -13 -126
-80 0 -36 7 -47 87 -128 l87 -89 -50 0 c-66 0 -317 18 -434 30 -499 55 -883
146 -1145 274 -202 99 -280 199 -230 295 40 77 206 184 390 252 50 18 101 42
114 55 48 45 19 133 -49 148 -15 4 -57 -5 -106 -23z" fill="#0055ff"/>
<path d="M4161 2736 c-28 -16 -50 -52 -51 -83 0 -39 49 -78 145 -113 184 -66
350 -173 390 -251 43 -82 -5 -163 -151 -256 -175 -112 -553 -222 -968 -282
-123 -18 -332 -39 -558 -57 -87 -6 -122 -26 -133 -73 -8 -35 15 -85 47 -102
43 -23 573 29 879 85 497 92 876 254 1009 430 51 68 72 126 72 203 -1 186
-186 352 -540 482 -93 34 -107 36 -141 17z" fill="#0055ff"/>
</g>
</svg>
